<svg id="Layer_1" data-name="Layer 1" xmlns="http://www.w3.org/2000/svg" viewBox="0 0 135.1 57.2"><rect x="71.1" y="57" width="0.2" height="0.2" fill="#fff"/><polygon points="23.5 24.4 23.8 24.4 23.8 24.4 23.5 24.4" fill="#fff"/><rect x="22.9" y="27" width="6.4" height="22" fill="#fff"/><rect x="18.5" y="47.6" width="16.1" height="1.9" fill="#fff"/><path d="M638.5,396.8l-.4,3.1a3.2,3.2,0,0,1-1.6,2.3,5.36,5.36,0,0,1-2.4.8l.5.6s2.8.5,2.9.5,2.9-.6,2.9-.6a8.33,8.33,0,0,0,.4-1.5" transform="translate(-615.6 -355.5)" fill="#fff"/><path d="M644.9,396.1l.4,3.5a3.55,3.55,0,0,0,1.8,2.6,6.31,6.31,0,0,0,2.8.9l-.6.7s-3.2.6-3.3.6-3.3-.7-3.3-.7a15.43,15.43,0,0,1-.5-1.7" transform="translate(-615.6 -355.5)" fill="#fff"/><rect x="64" y="27.4" width="6.9" height="22" fill="#fff"/><rect x="59.6" y="47.9" width="32.6" height="1.8" fill="#fff"/><rect x="70.6" y="46.3" width="21.6" height="1.8" fill="#fff"/><path d="M707.8,403.4l.6-12.7h-3.7l-.8,3.5-.9,3s-.9,2.2-1.3,2.3-2.1,1.7-3.7,2.3" transform="translate(-615.6 -355.5)" fill="#fff"/><rect x="105.2" y="27.4" width="6.8" height="22.2" fill="#fff"/><rect x="100.8" y="47.7" width="16.1" height="1.9" fill="#fff"/><path d="M720.9,397l-.4,3.1a3.2,3.2,0,0,1-1.6,2.3,5.36,5.36,0,0,1-2.4.8l.5.6c.1,0,2.8.5,2.9.5s2.9-.6,2.9-.6a8.33,8.33,0,0,0,.4-1.5" transform="translate(-615.6 -355.5)" fill="#fff"/><path d="M727.5,396.2l.4,3.5a3.55,3.55,0,0,0,1.8,2.6,6.31,6.31,0,0,0,2.8.9l-.6.7c-.1,0-3.2.6-3.3.6s-3.3-.7-3.3-.7a15.43,15.43,0,0,1-.5-1.7" transform="translate(-615.6 -355.5)" fill="#fff"/><path d="M679.7,397.3l-.4,3.1a3.2,3.2,0,0,1-1.6,2.3,5.36,5.36,0,0,1-2.4.8l.5.6s2.8.5,2.9.5,2.9-.6,2.9-.6a8.33,8.33,0,0,0,.4-1.5" transform="translate(-615.6 -355.5)" fill="#fff"/><path d="M615.7,382.5c.6,0,68.4-2.4,135,1.2" transform="translate(-615.6 -355.5)" fill="#108637"/><path d="M615.7,382.4c11.2-1.4,22.5-2.2,33.7-2.7,5.6-.3,11.3-.4,16.9-.5s11.3-.1,16.9-.1l16.9.3,8.4.3c2.8.1,5.6.3,8.4.5,11.3.7,22.5,1.7,33.7,3.3v.3c-11.2-.5-22.5-1-33.7-1.3s-22.5-.5-33.8-.5q-33.75-.3-67.5.6Z" transform="translate(-615.6 -355.5)" fill="#108637"/><rect x="22.94" y="29.4" width="6.4" height="10.8" fill="#fff" opacity="0.46" style="isolation:isolate"/><rect x="64.06" y="29.43" width="6.9" height="10.8" fill="#fff" opacity="0.46" style="isolation:isolate"/><rect x="105.22" y="30.87" width="6.8" height="10.8" fill="#fff" opacity="0.46" style="isolation:isolate"/><path d="M645,377h0V355.7h-6.6v21.8A24.52,24.52,0,0,1,645,377Z" transform="translate(-615.6 -355.5)" fill="#fff"/><rect x="17.6" width="32.6" height="1.8" fill="#fff"/><rect x="28.6" y="1.7" width="21.6" height="1.8" fill="#fff"/><path d="M665.8,355.5l.7,9.3h-4.2l-.9-2.6-1-2.2a9.57,9.57,0,0,0-1.4-1.7,37.26,37.26,0,0,0-4.3-1.7" transform="translate(-615.6 -355.5)" fill="#fff"/><path d="M638.7,363.5l-.4-3.1a3.2,3.2,0,0,0-1.6-2.3,7.67,7.67,0,0,0-2.4-.8l.5-.6s2.8-.5,2.9-.5,2.9.6,2.9.6a8.33,8.33,0,0,1,.4,1.5" transform="translate(-615.6 -355.5)" fill="#fff"/><path d="M679.9,376.1c2.2.1,4.4.2,6.6.2V355.7h-6.8V376C679.7,376.1,679.8,376,679.9,376.1Z" transform="translate(-615.6 -355.5)" fill="#fff"/><rect x="59.6" width="16.1" height="1.9" fill="#fff"/><path d="M679.8,363.6l-.4-3.1a3.2,3.2,0,0,0-1.6-2.3,5.36,5.36,0,0,0-2.4-.8l.5-.6s2.8-.5,2.9-.5,2.9.6,2.9.6a8.33,8.33,0,0,1,.4,1.5" transform="translate(-615.6 -355.5)" fill="#fff"/><path d="M686.3,364.4l.4-3.5a3.55,3.55,0,0,1,1.8-2.6,6.31,6.31,0,0,1,2.8-.9l-.6-.7c-.1,0-3.2-.6-3.3-.6s-3.3.7-3.3.7a15.43,15.43,0,0,0-.5,1.7" transform="translate(-615.6 -355.5)" fill="#fff"/><path d="M725.8,377.3c.6.1,1.3.1,1.9.2h.1V356h-3.3v21.1C724.9,377.2,725.3,377.2,725.8,377.3Z" transform="translate(-615.6 -355.5)" fill="#fff"/><path d="M725.4,363.7l-.3-3.1a3.39,3.39,0,0,0-1.4-2.3,5.93,5.93,0,0,0-2.1-.8s.4-.6.5-.6,2.4-.5,2.5-.5,2.5.6,2.5.6l.4,1.5" transform="translate(-615.6 -355.5)" fill="#fff"/><path d="M724.1,377.1c.5,0,.9.1,1.4.1V355.9h-4.4V377C722.1,377,723.1,377,724.1,377.1Z" transform="translate(-615.6 -355.5)" fill="#fff"/><rect x="88.68" y="0.08" width="22" height="1.8" fill="#fff"/><rect x="89.19" y="1.79" width="17.7" height="1.8" fill="#fff"/><path d="M704.4,355.6l-.6,9.3h3.6l.8-2.6.9-2.2s.9-1.6,1.2-1.7a25.6,25.6,0,0,1,3.6-1.7" transform="translate(-615.6 -355.5)" fill="#fff"/><rect x="107.9" width="22" height="1.8" fill="#fff"/><rect x="111.7" y="1.8" width="17.7" height="1.8" fill="#fff"/><path d="M745.4,355.6l.6,9.3h-3.6l-.8-2.6-.9-2.2s-.9-1.6-1.2-1.7a25.6,25.6,0,0,0-3.6-1.7" transform="translate(-615.6 -355.5)" fill="#fff"/><rect x="22.75" y="4.68" width="6.6" height="13.9" fill="#fff" opacity="0.29" style="isolation:isolate"/><rect x="63.95" y="4.68" width="6.8" height="13.3" fill="#fff" opacity="0.29" style="isolation:isolate"/><rect x="105.33" y="5.2" width="6.7" height="13.4" fill="#fff" opacity="0.29" style="isolation:isolate"/></svg>
