<svg id="Layer_1" data-name="Layer 1" xmlns="http://www.w3.org/2000/svg" xmlns:xlink="http://www.w3.org/1999/xlink" viewBox="0 0 135.1 57.2"><defs><linearGradient id="linear-gradient" x1="641.8" y1="385.07" x2="641.8" y2="374.32" gradientTransform="matrix(1, 0, 0, -1, -615.6, 414.5)" gradientUnits="userSpaceOnUse"><stop offset="0.05" stop-color="#dbdbdb" stop-opacity="0"/><stop offset="0.05" stop-color="#d0d1cf" stop-opacity="0.01"/><stop offset="0.08" stop-color="#97a090" stop-opacity="0.03"/><stop offset="0.11" stop-color="#6c7c63" stop-opacity="0.06"/><stop offset="0.14" stop-color="#4a6345" stop-opacity="0.09"/><stop offset="0.17" stop-color="#325131" stop-opacity="0.12"/><stop offset="0.2" stop-color="#214626" stop-opacity="0.15"/><stop offset="0.22" stop-color="#164121" stop-opacity="0.17"/><stop offset="0.25" stop-color="#123f1f" stop-opacity="0.2"/><stop offset="0.31" stop-color="#123f1f" stop-opacity="0.24"/><stop offset="0.71" stop-color="#123f1f" stop-opacity="0.5"/><stop offset="0.96" stop-color="#123f1f" stop-opacity="0"/></linearGradient><linearGradient id="linear-gradient-2" x1="683.15" y1="385.06" x2="683.15" y2="374.31" xlink:href="#linear-gradient"/><linearGradient id="linear-gradient-3" x1="724.2" y1="383.54" x2="724.2" y2="372.79" xlink:href="#linear-gradient"/><linearGradient id="linear-gradient-4" x1="536.94" y1="360" x2="550.81" y2="360" gradientTransform="matrix(0, 1, 1, 0, -334, -532.19)" gradientUnits="userSpaceOnUse"><stop offset="0.17" stop-color="#fff" stop-opacity="0"/><stop offset="0.24" stop-color="#fcfafc" stop-opacity="0.24"/><stop offset="0.33" stop-color="#f2ecf2" stop-opacity="0.51"/><stop offset="0.42" stop-color="#e3d4e3" stop-opacity="0.81"/><stop offset="0.44" stop-color="#dcd" stop-opacity="0.9"/><stop offset="0.8" stop-color="#dbdbdb" stop-opacity="0"/></linearGradient><linearGradient id="linear-gradient-5" x1="536.86" y1="401.3" x2="550.19" y2="401.3" xlink:href="#linear-gradient-4"/><linearGradient id="linear-gradient-6" x1="537.46" y1="442.65" x2="550.81" y2="442.65" xlink:href="#linear-gradient-4"/></defs><title>Untitled-1</title><rect x="71.1" y="57" width="0.2" height="0.2" fill="#fff"/><polygon points="23.5 24.4 23.8 24.4 23.8 24.4 23.5 24.4" fill="#fff"/><rect x="22.9" y="27" width="6.4" height="22" fill="#108637"/><rect x="18.5" y="47.6" width="16.1" height="1.9" fill="#108637"/><path d="M638.5,396.8l-.4,3.1a3.2,3.2,0,0,1-1.6,2.3,5.36,5.36,0,0,1-2.4.8l.5.6s2.8.5,2.9.5,2.9-.6,2.9-.6a8.33,8.33,0,0,0,.4-1.5" transform="translate(-615.6 -355.5)" fill="#108637"/><path d="M644.9,396.1l.4,3.5a3.55,3.55,0,0,0,1.8,2.6,6.31,6.31,0,0,0,2.8.9l-.6.7s-3.2.6-3.3.6-3.3-.7-3.3-.7a15.43,15.43,0,0,1-.5-1.7" transform="translate(-615.6 -355.5)" fill="#108637"/><rect x="64" y="27.4" width="6.9" height="22" fill="#108637"/><rect x="59.6" y="47.9" width="32.6" height="1.8" fill="#108637"/><rect x="70.6" y="46.3" width="21.6" height="1.8" fill="#108637"/><path d="M707.8,403.4l.6-12.7h-3.7l-.8,3.5-.9,3s-.9,2.2-1.3,2.3-2.1,1.7-3.7,2.3" transform="translate(-615.6 -355.5)" fill="#108637"/><rect x="105.2" y="27.4" width="6.8" height="22.2" fill="#108637"/><rect x="100.8" y="47.7" width="16.1" height="1.9" fill="#108637"/><path d="M720.9,397l-.4,3.1a3.2,3.2,0,0,1-1.6,2.3,5.36,5.36,0,0,1-2.4.8l.5.6c.1,0,2.8.5,2.9.5s2.9-.6,2.9-.6a8.33,8.33,0,0,0,.4-1.5" transform="translate(-615.6 -355.5)" fill="#108637"/><path d="M727.5,396.2l.4,3.5a3.55,3.55,0,0,0,1.8,2.6,6.31,6.31,0,0,0,2.8.9l-.6.7c-.1,0-3.2.6-3.3.6s-3.3-.7-3.3-.7a15.43,15.43,0,0,1-.5-1.7" transform="translate(-615.6 -355.5)" fill="#108637"/><path d="M679.7,397.3l-.4,3.1a3.2,3.2,0,0,1-1.6,2.3,5.36,5.36,0,0,1-2.4.8l.5.6s2.8.5,2.9.5,2.9-.6,2.9-.6a8.33,8.33,0,0,0,.4-1.5" transform="translate(-615.6 -355.5)" fill="#108637"/><path d="M615.7,382.5c.6,0,68.4-2.4,135,1.2" transform="translate(-615.6 -355.5)" fill="#108637"/><path d="M615.7,382.4c11.2-1.4,22.5-2.2,33.7-2.7,5.6-.3,11.3-.4,16.9-.5s11.3-.1,16.9-.1l16.9.3,8.4.3c2.8.1,5.6.3,8.4.5,11.3.7,22.5,1.7,33.7,3.3v.3c-11.2-.5-22.5-1-33.7-1.3s-22.5-.5-33.8-.5q-33.75-.3-67.5.6Z" transform="translate(-615.6 -355.5)" fill="#108637"/><polygon points="23 29.4 29.4 29.4 29.4 40.2 23 40.2 23 29.4" opacity="0.46" fill="url(#linear-gradient)" style="isolation:isolate"/><polygon points="64.1 29.4 71 29.4 71 40.2 64.1 40.2 64.1 29.4" opacity="0.46" fill="url(#linear-gradient-2)" style="isolation:isolate"/><polygon points="105.2 31 112 31 112 41.7 105.2 41.7 105.2 31" opacity="0.46" fill="url(#linear-gradient-3)" style="isolation:isolate"/><path d="M645,377h0V355.7h-6.6v21.8A24.52,24.52,0,0,1,645,377Z" transform="translate(-615.6 -355.5)" fill="#4e4d4d"/><rect x="17.6" width="32.6" height="1.8" fill="#4e4d4d"/><rect x="28.6" y="1.7" width="21.6" height="1.8" fill="#4e4d4d"/><path d="M665.8,355.5l.7,9.3h-4.2l-.9-2.6-1-2.2a9.57,9.57,0,0,0-1.4-1.7,37.26,37.26,0,0,0-4.3-1.7" transform="translate(-615.6 -355.5)" fill="#4e4d4d"/><path d="M638.7,363.5l-.4-3.1a3.2,3.2,0,0,0-1.6-2.3,7.67,7.67,0,0,0-2.4-.8l.5-.6s2.8-.5,2.9-.5,2.9.6,2.9.6a8.33,8.33,0,0,1,.4,1.5" transform="translate(-615.6 -355.5)" fill="#4e4d4d"/><path d="M679.9,376.1c2.2.1,4.4.2,6.6.2V355.7h-6.8V376C679.7,376.1,679.8,376,679.9,376.1Z" transform="translate(-615.6 -355.5)" fill="#4e4d4d"/><rect x="59.6" width="16.1" height="1.9" fill="#4e4d4d"/><path d="M679.8,363.6l-.4-3.1a3.2,3.2,0,0,0-1.6-2.3,5.36,5.36,0,0,0-2.4-.8l.5-.6s2.8-.5,2.9-.5,2.9.6,2.9.6a8.33,8.33,0,0,1,.4,1.5" transform="translate(-615.6 -355.5)" fill="#4e4d4d"/><path d="M686.3,364.4l.4-3.5a3.55,3.55,0,0,1,1.8-2.6,6.31,6.31,0,0,1,2.8-.9l-.6-.7c-.1,0-3.2-.6-3.3-.6s-3.3.7-3.3.7a15.43,15.43,0,0,0-.5,1.7" transform="translate(-615.6 -355.5)" fill="#4e4d4d"/><path d="M725.8,377.3c.6.1,1.3.1,1.9.2h.1V356h-3.3v21.1C724.9,377.2,725.3,377.2,725.8,377.3Z" transform="translate(-615.6 -355.5)" fill="#4e4d4d"/><path d="M725.4,363.7l-.3-3.1a3.39,3.39,0,0,0-1.4-2.3,5.93,5.93,0,0,0-2.1-.8s.4-.6.5-.6,2.4-.5,2.5-.5,2.5.6,2.5.6l.4,1.5" transform="translate(-615.6 -355.5)" fill="#4e4d4d"/><path d="M724.1,377.1c.5,0,.9.1,1.4.1V355.9h-4.4V377C722.1,377,723.1,377,724.1,377.1Z" transform="translate(-615.6 -355.5)" fill="#4e4d4d"/><rect x="88.68" y="0.08" width="22" height="1.8" fill="#4e4d4d"/><rect x="89.19" y="1.79" width="17.7" height="1.8" fill="#4e4d4d"/><path d="M704.4,355.6l-.6,9.3h3.6l.8-2.6.9-2.2s.9-1.6,1.2-1.7a25.6,25.6,0,0,1,3.6-1.7" transform="translate(-615.6 -355.5)" fill="#4e4d4d"/><rect x="107.9" width="22" height="1.8" fill="#4e4d4d"/><rect x="111.7" y="1.8" width="17.7" height="1.8" fill="#4e4d4d"/><path d="M745.4,355.6l.6,9.3h-3.6l-.8-2.6-.9-2.2s-.9-1.6-1.2-1.7a25.6,25.6,0,0,0-3.6-1.7" transform="translate(-615.6 -355.5)" fill="#4e4d4d"/><polygon points="22.7 4.8 29.3 4.8 29.3 18.6 22.7 18.6 22.7 4.8" opacity="0.29" fill="url(#linear-gradient-4)" style="isolation:isolate"/><polygon points="63.9 4.7 70.7 4.7 70.7 18 63.9 18 63.9 4.7" opacity="0.29" fill="url(#linear-gradient-5)" style="isolation:isolate"/><polygon points="105.3 5.3 112 5.3 112 18.6 105.3 18.6 105.3 5.3" opacity="0.29" fill="url(#linear-gradient-6)" style="isolation:isolate"/></svg>